<?xml version="1.0" encoding="UTF-8"?>
<svg version="1.1" xmlns="http://www.w3.org/2000/svg" width="4500" height="4500">
<path d="M0 0 C1485 0 2970 0 4500 0 C4500 1485 4500 2970 4500 4500 C3015 4500 1530 4500 0 4500 C0 3015 0 1530 0 0 Z " fill="#202020" transform="translate(0,0)"/>
<path d="M0 0 C3.99011371 0.00569174 7.98016062 0.00229809 11.97027206 -0.00343323 C39.56400625 -0.03712537 67.21121318 0.15700633 94.73022461 2.38037109 C95.52376343 2.44284027 96.31730225 2.50530945 97.1348877 2.56967163 C130.73619148 5.25322963 164.33042119 10.30690456 196.35522461 21.13037109 C197.60215088 21.55092773 197.60215088 21.55092773 198.87426758 21.97998047 C233.04492953 33.74013991 265.93451722 53.08693579 282.61694336 86.38378906 C291.42983964 104.70167246 293.35522461 121.6942496 293.35522461 142.13037109 C233.95522461 142.13037109 174.55522461 142.13037109 113.35522461 142.13037109 C111.70522461 137.51037109 110.05522461 132.89037109 108.35522461 128.13037109 C98.17628702 112.86196471 81.93307289 106.42036292 64.60522461 102.38037109 C63.7617749 102.18169434 62.9183252 101.98301758 62.04931641 101.77832031 C44.34312802 97.92146136 26.54676135 97.78207268 8.5090332 97.81469727 C5.75398339 97.8193083 2.99937723 97.81246918 0.24438477 97.79418945 C-43.97240154 96.27646303 -43.97240154 96.27646303 -83.88696289 111.95458984 C-89.25990677 118.08591575 -91.01518437 123.56535407 -90.58227539 131.69287109 C-89.71565805 137.33573176 -87.29570816 141.72816782 -83.06274414 145.56396484 C-51.70191648 167.49604693 4.15776719 160.89332958 40.23022461 161.63037109 C167.43818389 164.24285039 167.43818389 164.24285039 222.35522461 182.13037109 C223.15428223 182.38898926 223.95333984 182.64760742 224.77661133 182.9140625 C242.03338861 188.6105759 258.37158961 196.39627738 272.35522461 208.13037109 C273.28592773 208.88705078 274.21663086 209.64373047 275.17553711 210.42333984 C289.3317569 222.50936036 298.88360681 239.03266113 304.23022461 256.75537109 C304.42140869 257.38677002 304.61259277 258.01816895 304.80957031 258.66870117 C308.37832956 271.52951809 308.72743321 284.5151105 308.66772461 297.75537109 C308.66499039 299.01211639 308.66499039 299.01211639 308.66220093 300.29425049 C308.61653604 312.75883161 308.29834048 324.95750357 305.35522461 337.13037109 C305.19425293 337.81566895 305.03328125 338.5009668 304.86743164 339.20703125 C300.63902157 356.40906454 291.69933783 370.73946068 280.35522461 384.13037109 C279.73905273 384.89865234 279.12288086 385.66693359 278.48803711 386.45849609 C273.79301003 392.16441417 268.21284258 396.66048722 262.35522461 401.13037109 C261.41163086 401.85095703 260.46803711 402.57154297 259.49584961 403.31396484 C192.65769598 451.88417752 94.00043054 449.3689593 15.16772461 449.31787109 C14.24308788 449.31760422 13.31845116 449.31733734 12.36579514 449.31706238 C-178.68158387 449.24792559 -178.68158387 449.24792559 -241.64477539 387.13037109 C-248.63916725 379.8581696 -254.6768413 371.92245909 -259.64477539 363.13037109 C-259.96542969 362.57075684 -260.28608398 362.01114258 -260.61645508 361.43457031 C-266.94182065 350.22747524 -270.65215755 338.61190572 -273.64477539 326.13037109 C-273.91290039 325.01404297 -274.18102539 323.89771484 -274.45727539 322.74755859 C-276.59154789 311.631556 -275.64477539 300.46284693 -275.64477539 289.13037109 C-215.58477539 289.13037109 -155.52477539 289.13037109 -93.64477539 289.13037109 C-92.65477539 294.08037109 -91.66477539 299.03037109 -90.64477539 304.13037109 C-83.8326566 320.51189485 -72.02547237 331.53067614 -55.84790039 338.49755859 C-11.52475256 356.39004745 56.3872033 355.20415657 100.85522461 339.31787109 C105.31240111 337.41746536 108.86639929 334.64587261 112.54272461 331.52099609 C114.35522461 330.13037109 114.35522461 330.13037109 116.35522461 330.13037109 C117.02430127 328.79824548 117.69039259 327.46462018 118.35522461 326.13037109 C118.70842773 325.44201172 119.06163086 324.75365234 119.42553711 324.04443359 C123.38031677 315.461097 123.80527153 306.16286049 121.16772461 297.06787109 C118.69371431 290.82504138 113.90703649 287.58023497 108.35522461 284.13037109 C69.41538553 267.77468777 22.5852185 271.18821099 -18.67883301 270.01574707 C-188.28979881 265.19196308 -188.28979881 265.19196308 -239.64477539 215.13037109 C-240.36020508 214.48841797 -241.07563477 213.84646484 -241.81274414 213.18505859 C-259.98264313 196.42958288 -268.48145774 170.59981146 -269.85131836 146.49609375 C-269.94710407 142.80908846 -269.97382512 139.13106182 -269.95727539 135.44287109 C-269.94990356 133.48111938 -269.94990356 133.48111938 -269.94238281 131.47973633 C-269.6230324 104.92452088 -262.98646449 80.02883936 -244.64477539 60.13037109 C-244.16911133 59.6123291 -243.69344727 59.09428711 -243.20336914 58.56054688 C-218.36761685 31.81129832 -184.64004893 19.7548828 -149.64477539 12.13037109 C-148.12859619 11.79827637 -148.12859619 11.79827637 -146.58178711 11.45947266 C-98.37575395 1.10843732 -49.11990651 -0.07059274 0 0 Z " fill="#1A2C59" transform="translate(1141.644775390625,1930.86962890625)"/>
<path d="M0 0 C28.98910583 -0.18675689 57.97812172 -0.32789438 86.96770763 -0.41449738 C89.64554584 -0.42265632 92.32338345 -0.43098688 95.0012207 -0.43945312 C95.66681625 -0.44155161 96.33241179 -0.44365009 97.01817689 -0.44581217 C107.79791306 -0.48063044 118.5773082 -0.54371077 129.356842 -0.61722237 C140.41628035 -0.69201421 151.47553032 -0.73586685 162.53520852 -0.75270796 C168.74803241 -0.76315141 174.96008264 -0.78774924 181.17265892 -0.84584045 C187.01770796 -0.9000534 192.86166313 -0.91691032 198.7069397 -0.90486145 C200.85443881 -0.90706632 203.00197368 -0.92303319 205.14925575 -0.9536438 C208.0784506 -0.99336034 211.00349751 -0.98392132 213.93278503 -0.96203613 C214.7859023 -0.98533886 215.63901956 -1.0086416 216.51798886 -1.03265047 C218.92819929 -0.98385397 220.74507496 -0.85861742 223 0 C225.25499815 2.41307175 226.60926237 5.02566311 228 8 C228.71364958 9.33655761 229.43078941 10.671264 230.15307617 12.00317383 C230.86997701 13.4026196 231.58314429 14.80398296 232.29296875 16.20703125 C232.68059387 16.96564957 233.06821899 17.72426788 233.46759033 18.50587463 C234.28843739 20.11313572 235.10771475 21.72119933 235.92550659 23.33001709 C238.05250306 27.51405826 240.19119703 31.69211889 242.328125 35.87109375 C242.74239243 36.68205505 243.15665985 37.49301636 243.58348083 38.32855225 C246.4978029 44.03040852 249.44147951 49.71556645 252.4375 55.375 C252.99787964 56.43376343 252.99787964 56.43376343 253.56958008 57.51391602 C254.31598346 58.92371687 255.06248372 60.33346643 255.80908203 61.74316406 C258.18046362 66.23702453 260.52623197 70.74429185 262.875 75.25 C263.37684814 76.21244629 263.87869629 77.17489258 264.39575195 78.16650391 C266.44462954 82.09644189 268.49280268 86.02674684 270.54101562 89.95703125 C275.67796029 99.81317667 280.8174567 109.66773713 286 119.5 C292.2190853 131.29877871 298.37717375 143.12932961 304.54101562 154.95703125 C309.65644141 164.77188886 314.77444593 174.58509545 319.9375 184.375 C324.38739255 192.81264615 328.78724471 201.2759297 333.18334961 209.74169922 C336.43712984 216.00430519 339.70635562 222.25827393 343 228.5 C346.86188683 235.8185921 350.68646196 243.1561047 354.5 250.5 C358.33512691 257.88513912 362.18059175 265.26433502 366.0625 272.625 C372.26254041 284.38118209 378.39869289 296.17062235 384.54101562 307.95703125 C389.65644141 317.77188886 394.77444593 327.58509545 399.9375 337.375 C404.38739255 345.81264615 408.78724471 354.2759297 413.18334961 362.74169922 C416.43713072 369.00430688 419.70657541 375.25815696 423 381.5 C426.89433346 388.88577721 430.76672504 396.28281988 434.625 403.6875 C435.13933594 404.67234375 435.65367187 405.6571875 436.18359375 406.671875 C440.55399586 415.06968564 444.76435718 423.52871436 449 432 C388.94 432 328.88 432 267 432 C257.73023045 413.4604609 257.73023045 413.4604609 253.51171875 404.83984375 C252.80690117 403.40047203 252.80690117 403.40047203 252.08784485 401.93202209 C251.11214234 399.93867072 250.13681513 397.9451356 249.16186523 395.95141602 C247.6741035 392.91011471 246.18375269 389.87009052 244.69335938 386.83007812 C243.73682109 384.87507733 242.78043528 382.92000193 241.82421875 380.96484375 C241.3835759 380.06684555 240.94293304 379.16884735 240.48893738 378.24363708 C240.07452896 377.39487503 239.66012054 376.54611298 239.2331543 375.67163086 C238.87311813 374.93601425 238.51308197 374.20039764 238.14213562 373.44248962 C236.6862557 370.32904886 235.35390812 367.15911895 234 364 C153.15 364 72.3 364 -11 364 C-16.38775111 374.17686322 -21.62661532 384.1760806 -26.375 394.625 C-32.10343518 407.15784629 -38.05211821 419.56351989 -44 432 C-99.77 432 -155.54 432 -213 432 C-202.84181598 410.55494484 -202.84181598 410.55494484 -198.625 402.25 C-195.50729198 396.07115821 -192.44209892 389.8734012 -189.48571777 383.61572266 C-184.35290723 372.75454035 -179.03721147 361.98961898 -173.65625 351.25 C-173.28702801 350.51299614 -172.91780602 349.77599228 -172.53739548 349.01665497 C-169.47472776 342.90532727 -166.40683278 336.79662684 -163.33880615 330.68798828 C-160.67141565 325.37651307 -158.00596297 320.06407235 -155.34375 314.75 C-154.97292801 314.00987671 -154.60210602 313.26975342 -154.220047 312.50720215 C-149.89856189 303.87572572 -145.63035071 295.22503677 -141.5 286.5 C-137.01179547 277.01902554 -132.35483828 267.62790828 -127.65625 258.25 C-127.10080254 257.14126526 -127.10080254 257.14126526 -126.53413391 256.01013184 C-123.47255358 249.90097844 -120.40574169 243.79445441 -117.33880615 237.68798828 C-114.67141565 232.37651307 -112.00596348 227.06407209 -109.34375 221.75 C-108.97309418 221.01020905 -108.60243835 220.27041809 -108.22055054 219.50820923 C-103.44636218 209.97253713 -98.76543358 200.40065993 -94.20202637 190.76196289 C-90.20253779 182.34863946 -86.04792297 174.01571477 -81.875 165.6875 C-81.51568893 164.97031799 -81.15637787 164.25313599 -80.78617859 163.51422119 C-77.81940137 157.59466039 -74.84738722 151.67773212 -71.87524414 145.76086426 C-69.28945067 140.6126006 -66.7056048 135.46336665 -64.125 130.3125 C-63.58509587 129.23497278 -63.58509587 129.23497278 -63.03428459 128.13567734 C-58.786367 119.65147538 -54.59535029 111.14640619 -50.53515625 102.5703125 C-46.02375041 93.04237004 -41.34311648 83.60443768 -36.62109375 74.1796875 C-36.24959827 73.43813667 -35.8781028 72.69658585 -35.49534988 71.93256378 C-32.81225342 66.57860933 -30.1252698 61.22660953 -27.4375 55.875 C-24.738469 50.50092814 -22.04093684 45.12611336 -19.34681892 39.74957657 C-18.29530224 37.65281116 -17.24130667 35.55730671 -16.18711853 33.46188354 C-12.27947494 25.67457781 -8.47629132 17.84284307 -4.739151 9.97219849 C-4.28102791 9.0086976 -3.82290483 8.0451967 -3.35089922 7.05249882 C-2.23335974 4.7019375 -1.11640496 2.35110032 0 0 Z " fill="#1A2C58" transform="translate(1644,1939)"/>
<path d="M0 0 C158.07 0 316.14 0 479 0 C479 35.31 479 70.62 479 107 C323.57 107.495 323.57 107.495 165 108 C164.67 124.83 164.34 141.66 164 159 C265.64 159 367.28 159 472 159 C472 193.98 472 228.96 472 265 C320.035 265.495 320.035 265.495 165 266 C164.67 285.14 164.34 304.28 164 324 C269.27 324 374.54 324 483 324 C483 359.64 483 395.28 483 432 C323.61 432 164.22 432 0 432 C0 289.44 0 146.88 0 0 Z " fill="#1A2C59" transform="translate(3140,1939)"/>
<path d="M0 0 C62.04 0 124.08 0 188 0 C194.80172139 13.60344278 201.57924655 27.17573646 208.09765625 40.91015625 C211.30961863 47.66115347 214.55958029 54.39366749 217.8125 61.125 C218.4059353 62.35342902 218.99935974 63.58186328 219.59277344 64.81030273 C221.09392853 67.91757968 222.59547847 71.02466567 224.09710693 74.13171387 C226.77395858 79.670714 229.44980639 85.2101989 232.125 90.75 C232.56255112 91.65603973 232.56255112 91.65603973 233.00894165 92.5803833 C237.50723664 101.8961096 241.9886959 111.2198262 246.46142578 120.54785156 C250.29436454 128.53831801 254.14469257 136.52031244 258 144.5 C262.83545477 154.50838947 267.65518473 164.52418207 272.4609375 174.546875 C276.2940755 182.53764946 280.14453425 190.51998475 284 198.5 C288.34546044 207.49420275 292.68118208 216.4929631 297 225.5 C302.73353459 237.45616776 308.49648809 249.39804495 314.26475525 261.33747864 C316.49925984 265.96271627 318.73232691 270.58864638 320.96484375 275.21484375 C321.61539589 276.56282612 322.26594926 277.9108079 322.91650391 279.25878906 C323.8585197 281.210705 324.80050297 283.16263659 325.74237061 285.11462402 C326.60546184 286.90330118 327.46874189 288.69188721 328.33203125 290.48046875 C329.07030151 292.01030396 329.07030151 292.01030396 329.82348633 293.57104492 C330.54056281 295.05147529 331.26435433 296.52870866 332 298 C337.10802992 288.00228209 341.91401472 277.9242808 346.41195679 267.63821411 C352.50945564 253.70441385 358.78836687 239.86006389 365.1875 226.0625 C370.85737812 213.83041646 376.46951913 201.57834042 381.96435547 189.26635742 C382.48400879 188.10209229 383.00366211 186.93782715 383.5390625 185.73828125 C383.80560638 185.14107773 384.07215027 184.54387421 384.34677124 183.92857361 C388.30672731 175.06450628 392.31098437 166.22036157 396.3125 157.375 C396.71775909 156.479021 397.12301819 155.58304199 397.54055786 154.65991211 C403.45261422 141.59237846 409.40246799 128.54254708 415.37573242 115.50289917 C420.25374266 104.85150786 425.07744431 94.17725393 429.85693359 83.48120117 C435.1100123 71.73190598 440.4189014 60.00804277 445.73007202 48.28491211 C449.86148905 39.16539488 453.98899971 30.04441744 458.0703125 20.90234375 C458.53295502 19.86661728 458.53295502 19.86661728 459.00494385 18.80996704 C460.42519004 15.62931231 461.84270131 12.44748207 463.25585938 9.26367188 C463.74119141 8.17505859 464.22652344 7.08644531 464.7265625 5.96484375 C465.35425537 4.55126587 465.35425537 4.55126587 465.99462891 3.10913086 C467 1 467 1 468 0 C470.2149186 -0.09701605 472.43299797 -0.12186691 474.65003967 -0.12025452 C475.70487782 -0.12153615 475.70487782 -0.12153615 476.78102583 -0.12284368 C479.15490516 -0.12450053 481.52871498 -0.1189738 483.90258789 -0.11352539 C485.59729511 -0.11324354 487.29200245 -0.11340122 488.98670959 -0.1139679 C493.60221626 -0.11425594 498.21769717 -0.10835809 502.83319783 -0.10139394 C507.65120264 -0.09516156 512.46920797 -0.09455669 517.28721619 -0.09336853 C526.41742498 -0.09025487 535.54762186 -0.08204102 544.67782539 -0.07201904 C555.06942676 -0.06085898 565.46102868 -0.05534772 575.85263455 -0.05032361 C597.23509636 -0.03985843 618.61754743 -0.02225832 640 0 C639.52941575 1.43691173 639.05665261 2.87311 638.58297729 4.30900574 C638.31994246 5.10886493 638.05690762 5.90872412 637.78590202 6.73282146 C636.81719939 9.52734515 635.62682816 12.14835157 634.3203125 14.80078125 C633.81081055 15.84484131 633.30130859 16.88890137 632.77636719 17.96459961 C632.23141602 19.06940674 631.68646484 20.17421387 631.125 21.3125 C629.94364762 23.73618951 628.7636347 26.1604753 627.5859375 28.5859375 C627.28554565 29.20365524 626.98515381 29.82137299 626.67565918 30.45780945 C623.62303692 36.74857953 620.67967665 43.08864159 617.75 49.4375 C612.72311493 60.31880124 607.6278744 71.16596338 602.5 82 C597.46066399 92.64881283 592.44650942 103.30767145 587.5 114 C582.21308655 125.42706557 576.84824359 136.81589044 571.46386719 148.19726562 C566.61326391 158.45134592 561.78702752 168.71608815 557 179 C551.85158031 190.06028616 546.65469979 201.09699902 541.4375 212.125 C535.89410922 223.84277668 530.39560871 235.57928861 524.95288086 247.34423828 C520.15534192 257.69943992 515.27793253 268.01619213 510.39648438 278.33203125 C505.72598636 288.20395422 501.08541868 298.08820182 496.5 308 C491.21308655 319.42706557 485.84824359 330.81589044 480.46386719 342.19726562 C475.6132585 352.45135737 470.78770042 362.71638815 466 373 C461.03186017 383.66729453 456.03488872 394.32069777 451.01318359 404.96289062 C450.26352575 406.5516121 449.51416914 408.14047575 448.76513672 409.72949219 C447.7168267 411.95295063 446.66721591 414.17579014 445.6171875 416.3984375 C445.31046112 417.04928314 445.00373474 417.70012878 444.68771362 418.37069702 C442.52164238 422.94968376 440.2667653 427.4664694 438 432 C365.4 432 292.8 432 218 432 C207.66287494 413.62288879 207.66287494 413.62288879 204.28149414 406.77416992 C203.88659286 405.98305313 203.49169159 405.19193634 203.08482361 404.37684631 C201.81452455 401.8298984 200.54986067 399.28019856 199.28515625 396.73046875 C198.38074311 394.91534454 197.47590281 393.10043312 196.57066345 391.28572083 C194.20875587 386.54874082 191.85133213 381.80954579 189.49530029 377.06964111 C185.73143492 369.49845957 181.96209558 361.93000882 178.18997002 354.36293983 C176.89319955 351.75940629 175.59926917 349.15447714 174.30567932 346.54936218 C169.86393233 337.62111384 165.32015138 328.75762582 160.6530695 319.94506359 C156.85558677 312.76170814 153.19779346 305.51360069 149.58129883 298.23776245 C148.45404754 295.97005687 147.32399317 293.70376502 146.19335938 291.43774414 C143.38995701 285.81783232 140.59101764 280.19570105 137.79199219 274.5736084 C135.03032565 269.02707509 132.26678643 263.48148129 129.5 257.9375 C128.92462746 256.78447388 128.92462746 256.78447388 128.33763123 255.6081543 C124.31392532 247.55037859 120.27573728 239.50693767 116.03125 231.5625 C111.27986319 222.66768661 106.78378847 213.64744083 102.28125 204.625 C101.88749176 203.8360434 101.49373352 203.04708679 101.08804321 202.23422241 C97.80704917 195.65813419 94.53125984 189.07945598 91.2555542 182.50073242 C88.41227859 176.7909936 85.56713715 171.08219074 82.71875 165.375 C82.32426163 164.58450256 81.92977325 163.79400513 81.52333069 162.97955322 C77.42732322 154.77727512 73.32122679 146.58666264 69 138.5 C64.25827331 129.62642175 59.77339401 120.62660452 55.28125 111.625 C54.88744644 110.83595276 54.49364288 110.04690552 54.08790588 109.23394775 C50.80695761 102.65795109 47.53121421 96.07936435 44.2555542 89.50073242 C41.4122786 83.79099362 38.56717737 78.08217066 35.71875 72.375 C35.32737728 71.59079618 34.93600456 70.80659237 34.53277206 69.9986248 C29.51899366 59.95934153 24.42675649 49.97177975 19.15136719 40.06689453 C15.65102041 33.48473372 12.31593836 26.81792221 8.98242188 20.15014648 C7.8441675 17.87589618 6.69945811 15.60496044 5.5546875 13.33398438 C4.82513307 11.87779837 4.09595073 10.42142588 3.3671875 8.96484375 C3.0267038 8.29106186 2.68622009 7.61727997 2.3354187 6.92308044 C0 2.22892016 0 2.22892016 0 0 Z " fill="#1A2C59" transform="translate(2481,1939)"/>
<path d="M0 0 C54.78 0 109.56 0 166 0 C166 101.64 166 203.28 166 308 C264.67 308 363.34 308 465 308 C465 348.92 465 389.84 465 432 C311.55 432 158.1 432 0 432 C0 289.44 0 146.88 0 0 Z " fill="#1A2C58" transform="translate(2110,1939)"/>
<path d="M0 0 C24.1621875 -0.0928125 24.1621875 -0.0928125 48.8125 -0.1875 C53.86022705 -0.21481201 58.9079541 -0.24212402 64.10864258 -0.27026367 C70.3704834 -0.28381348 70.3704834 -0.28381348 73.32084656 -0.28633118 C75.3400319 -0.29087642 77.35921018 -0.30129622 79.37834167 -0.31672668 C103.43053997 -0.49101882 131.64043325 0.95339761 150.37890625 18.25390625 C162.36611028 31.16542481 164.69051138 45.77229231 164.13183594 62.71533203 C163.34337315 76.3791001 158.39938616 87.66032394 148.40625 97.00390625 C132.84603234 109.91181408 111.60789515 114.18996642 91.84204102 114.11352539 C90.32421099 114.11370619 90.32421099 114.11370619 88.77571774 114.11389065 C85.51842444 114.11314759 82.26118923 114.10554711 79.00390625 114.09765625 C76.98563667 114.09618495 74.96736671 114.0951654 72.94909668 114.09460449 C65.48689195 114.08937341 58.0246954 114.07541215 50.5625 114.0625 C33.876875 114.041875 17.19125 114.02125 0 114 C0 76.38 0 38.76 0 0 Z " fill="#1B2D59" transform="translate(1496,2475)"/>
<path d="M0 0 C1.0725 0.5775 2.145 1.155 3.25 1.75 C8.52299816 6.06427123 11.11691593 10.65769327 12 17.4375 C12.31877779 24.0043225 10.71115599 29.0568117 7.4375 34.6875 C0.50573549 41.2637894 -7.73439652 44.16665191 -16.6796875 46.921875 C-19.32372904 47.78041084 -21.55341956 48.72705839 -24 50 C-20.6225837 52.28452175 -17.24118802 54.5630105 -13.85595703 56.8359375 C-12.70445012 57.61032184 -11.55405231 58.38635802 -10.40478516 59.1640625 C-8.7545417 60.28036178 -7.09998645 61.39027855 -5.4453125 62.5 C-4.45031738 63.1703125 -3.45532227 63.840625 -2.43017578 64.53125 C-0.18797825 66.17241649 -0.18797825 66.17241649 2 66 C6.0918754 57.55802406 6.69418704 50.79359721 8 41 C20.87 41 33.74 41 47 41 C45.69037406 58.02513719 41.07971926 68.56037432 31 82 C38.92 82.33 46.84 82.66 55 83 C52.99610674 89.67964422 50.92607199 96.10374782 48.375 102.5625 C47.90707031 103.7700293 47.90707031 103.7700293 47.4296875 105.00195312 C45.1332676 110.8667324 45.1332676 110.8667324 44 112 C31.44680795 112.90536198 18.76213711 111.57488085 7.125 106.625 C2.31652764 104.76959535 -0.14225492 105.12736689 -4.8828125 106.9296875 C-16.26421678 110.83758822 -29.0152464 112.66709018 -41 113 C-42.25296875 113.03996094 -43.5059375 113.07992187 -44.796875 113.12109375 C-67.04728774 113.59059053 -96.46078574 113.234236 -113.5625 97 C-119.27966204 90.77280068 -121.36947952 84.59436245 -121.2109375 76.17578125 C-120.60865658 69.96336513 -118.39650974 64.29501301 -114.1328125 59.69921875 C-106.62065739 53.71426001 -95.71181863 48.41140493 -86 49 C-86.60328125 48.33355469 -87.2065625 47.66710938 -87.828125 46.98046875 C-94.96872514 38.74574439 -99.9319115 30.70112362 -99.37890625 19.48046875 C-98.28435499 12.31510738 -95.76434662 6.63152542 -89.8984375 2.23828125 C-68.34919488 -11.81750046 -22.27853053 -13.24532225 0 0 Z " fill="#1E305C" transform="translate(3097,2479)"/>
<path d="M0 0 C29.09634644 -0.16065467 29.09634644 -0.16065467 43.56377602 -0.20101547 C51.35951216 -0.22310208 59.15507538 -0.25105379 66.95068359 -0.30175781 C73.12701124 -0.34191024 79.30320785 -0.36749945 85.47966242 -0.37635398 C88.74329527 -0.38152136 92.00647103 -0.39564195 95.27000427 -0.42292023 C132.60813831 -0.72236989 132.60813831 -0.72236989 145 10 C152.11302781 18.52979105 152.57377601 26.24451244 152 37 C151.0518829 43.62640085 147.33531939 47.01664526 142.3515625 51.23828125 C140 53 140 53 137.2734375 54.60546875 C134.88111618 55.79727999 134.88111618 55.79727999 134 58 C134.680625 58.061875 135.36125 58.12375 136.0625 58.1875 C142.563899 59.9857593 146.45566123 64.0399492 149.95703125 69.64453125 C153.54036116 77.73722014 153.38448351 85.97337591 153.5625 94.6875 C153.62255159 97.27482935 153.68620786 99.86207819 153.75390625 102.44921875 C153.77783447 103.58705811 153.8017627 104.72489746 153.82641602 105.8972168 C153.98333569 108.70212846 154.36672195 111.26813102 155 114 C148.46721214 114.02527002 141.93443679 114.04283292 135.40161133 114.05493164 C133.17732268 114.05997317 130.95303737 114.06680623 128.72875977 114.07543945 C125.53921691 114.08751298 122.34971771 114.09322996 119.16015625 114.09765625 C117.65860741 114.10539818 117.65860741 114.10539818 116.12672424 114.11329651 C114.74540565 114.11340981 114.74540565 114.11340981 113.33618164 114.11352539 C112.52121719 114.115746 111.70625275 114.11796661 110.86659241 114.12025452 C109 114 109 114 108 113 C107.89076475 111.31371611 107.84415157 109.62329443 107.82421875 107.93359375 C107.78844727 106.36834961 107.78844727 106.36834961 107.75195312 104.77148438 C107.70951662 102.57635962 107.67798192 100.38099269 107.65820312 98.18554688 C107.49006086 91.80005098 107.05060045 86.18738186 103 81 C95.22801041 75.27343134 85.41384191 75.8461317 76.15234375 75.90234375 C74.80638878 75.90446617 74.80638878 75.90446617 73.4332428 75.90663147 C70.60129286 75.9121749 67.76942555 75.92471642 64.9375 75.9375 C63.00325636 75.94252233 61.06901147 75.94708394 59.13476562 75.95117188 C54.42312058 75.9612697 49.71165146 75.98085559 45 76 C44.67 88.54 44.34 101.08 44 114 C29.48 114 14.96 114 0 114 C0 76.38 0 38.76 0 0 Z " fill="#1B2D59" transform="translate(1669,2475)"/>
<path d="M0 0 C16.5 0 33 0 50 0 C52.31 2.31 54.62 4.62 57 7 C58.27007239 8.13962378 59.55299664 9.26546441 60.859375 10.36328125 C65.55026068 14.41542241 69.89113809 18.78390286 74.25 23.1875 C75.10754883 24.04883545 75.96509766 24.9101709 76.84863281 25.79760742 C80.48494939 29.45013983 84.11524371 33.10863635 87.74609375 36.76660156 C90.41197597 39.45065156 93.0809181 42.13163241 95.75 44.8125 C96.55856445 45.62936279 97.36712891 46.44622559 98.20019531 47.2878418 C102.49064998 51.59659741 106.86104234 55.73537117 111.47753906 59.6940918 C112.34222105 60.43578261 113.19446285 61.19446285 114 62 C114.33 41.54 114.66 21.08 115 0 C129.52 0 144.04 0 159 0 C159 37.62 159 75.24 159 114 C113 114 113 114 99.625 103.4375 C94.9765625 97.49609375 94.9765625 97.49609375 92.93652344 94.59521484 C90.65095001 91.53222373 88.13518485 89.28870345 85.19677734 86.87524414 C82.48411681 84.5596245 79.97682756 82.06298273 77.46875 79.53125 C76.98360931 79.04274063 76.49846863 78.55423126 75.99862671 78.05091858 C73.9927584 76.02720359 71.99189149 73.99857523 69.99072266 71.97021484 C64.17419015 66.08184995 58.30796384 60.36958905 52 55 C48.04 51.535 48.04 51.535 44 48 C44 69.78 44 91.56 44 114 C29.48 114 14.96 114 0 114 C0 76.38 0 38.76 0 0 Z " fill="#1D2E5B" transform="translate(1323,2475)"/>
<path d="M0 0 C1.12238068 -0.00570007 2.24476135 -0.01140015 3.40115356 -0.01727295 C5.77296009 -0.02668888 8.1447795 -0.03324332 10.51660156 -0.03710938 C14.08683139 -0.04675083 17.65646902 -0.07778125 21.2265625 -0.109375 C42.30294749 -0.20675479 65.01311777 0.44079996 82.2578125 14.203125 C89.23697044 21.55991273 90.30858649 27.76163889 91.2578125 38.203125 C75.0878125 38.203125 58.9178125 38.203125 42.2578125 38.203125 C41.2678125 36.223125 40.2778125 34.243125 39.2578125 32.203125 C37.45805699 30.71351474 37.45805699 30.71351474 35.3828125 29.890625 C34.39667969 29.43236328 34.39667969 29.43236328 33.390625 28.96484375 C27.07439937 26.70904888 20.62839839 26.98388266 14.0078125 26.953125 C12.91339844 26.9325 11.81898438 26.911875 10.69140625 26.890625 C4.12234949 26.85915646 -1.76624002 27.2678702 -7.7421875 30.203125 C-10.01746072 32.01923191 -10.01746072 32.01923191 -9.8046875 34.640625 C-8.91533914 37.54045304 -8.91533914 37.54045304 -5.5546875 38.953125 C-0.36942947 40.96636288 5.04956846 41.32623988 10.5625 41.44921875 C11.77405762 41.48055908 12.98561523 41.51189941 14.23388672 41.54418945 C16.16385498 41.59192505 16.16385498 41.59192505 18.1328125 41.640625 C73.20744346 43.24518788 73.20744346 43.24518788 86.3125 55.0546875 C93.99350645 63.30937908 95.23354631 71.1256114 95.2578125 82.203125 C94.66695123 92.18354259 90.75452284 99.068805 83.6328125 105.953125 C75.95442772 112.17923101 66.94427254 114.4833654 57.4453125 116.453125 C56.66446289 116.61643311 55.88361328 116.77974121 55.07910156 116.94799805 C25.39974562 122.60709507 -17.78906898 123.96601621 -44.89453125 108.1796875 C-52.72405825 102.745201 -57.08365913 96.28643027 -59.7421875 87.203125 C-59.7421875 83.573125 -59.7421875 79.943125 -59.7421875 76.203125 C-43.9021875 76.203125 -28.0621875 76.203125 -11.7421875 76.203125 C-10.4221875 78.843125 -9.1021875 81.483125 -7.7421875 84.203125 C-0.97350412 91.03092351 9.09138732 91.37434654 18.1328125 91.453125 C31.40924418 91.43754596 31.40924418 91.43754596 43.2578125 86.203125 C44.33548379 82.74336642 44.33548379 82.74336642 44.2578125 79.203125 C41.46858709 75.01928689 38.9512075 74.92105417 34.17675781 73.828125 C25.89809485 72.50782989 17.5000152 72.45082876 9.1328125 72.203125 C-1.55235857 71.88316514 -12.12412064 71.54086309 -22.6875 69.79296875 C-23.40511505 69.67433472 -24.1227301 69.55570068 -24.86209106 69.43347168 C-37.62971801 67.12426918 -47.90094358 61.55439674 -55.7421875 51.203125 C-59.90115304 43.26328171 -59.69895786 32.94573741 -57.5546875 24.3984375 C-54.60325886 16.42390436 -47.87776812 10.80174641 -40.46484375 7.05078125 C-27.54349882 1.50109501 -13.90531769 0.05566929 0 0 Z " fill="#1F305C" transform="translate(3548.7421875,2472.796875)"/>
<path d="M0 0 C1.12238068 -0.00570007 2.24476135 -0.01140015 3.40115356 -0.01727295 C5.77296009 -0.02668888 8.1447795 -0.03324332 10.51660156 -0.03710938 C14.08683139 -0.04675083 17.65646902 -0.07778125 21.2265625 -0.109375 C42.30294749 -0.20675479 65.01311777 0.44079996 82.2578125 14.203125 C89.23697044 21.55991273 90.30858649 27.76163889 91.2578125 38.203125 C75.0878125 38.203125 58.9178125 38.203125 42.2578125 38.203125 C41.2678125 36.223125 40.2778125 34.243125 39.2578125 32.203125 C37.45805699 30.71351474 37.45805699 30.71351474 35.3828125 29.890625 C34.39667969 29.43236328 34.39667969 29.43236328 33.390625 28.96484375 C27.07439937 26.70904888 20.62839839 26.98388266 14.0078125 26.953125 C12.91339844 26.9325 11.81898438 26.911875 10.69140625 26.890625 C4.12234949 26.85915646 -1.76624002 27.2678702 -7.7421875 30.203125 C-10.01746072 32.01923191 -10.01746072 32.01923191 -9.8046875 34.640625 C-8.91533914 37.54045304 -8.91533914 37.54045304 -5.5546875 38.953125 C-0.36942947 40.96636288 5.04956846 41.32623988 10.5625 41.44921875 C11.77405762 41.48055908 12.98561523 41.51189941 14.23388672 41.54418945 C16.16385498 41.59192505 16.16385498 41.59192505 18.1328125 41.640625 C73.20744346 43.24518788 73.20744346 43.24518788 86.3125 55.0546875 C93.99350645 63.30937908 95.23354631 71.1256114 95.2578125 82.203125 C94.66695123 92.18354259 90.75452284 99.068805 83.6328125 105.953125 C75.95442772 112.17923101 66.94427254 114.4833654 57.4453125 116.453125 C56.66446289 116.61643311 55.88361328 116.77974121 55.07910156 116.94799805 C25.39974562 122.60709507 -17.78906898 123.96601621 -44.89453125 108.1796875 C-52.72405825 102.745201 -57.08365913 96.28643027 -59.7421875 87.203125 C-59.7421875 83.573125 -59.7421875 79.943125 -59.7421875 76.203125 C-43.9021875 76.203125 -28.0621875 76.203125 -11.7421875 76.203125 C-10.4221875 78.843125 -9.1021875 81.483125 -7.7421875 84.203125 C-0.97350412 91.03092351 9.09138732 91.37434654 18.1328125 91.453125 C31.40924418 91.43754596 31.40924418 91.43754596 43.2578125 86.203125 C44.33548379 82.74336642 44.33548379 82.74336642 44.2578125 79.203125 C41.46858709 75.01928689 38.9512075 74.92105417 34.17675781 73.828125 C25.89809485 72.50782989 17.5000152 72.45082876 9.1328125 72.203125 C-1.55235857 71.88316514 -12.12412064 71.54086309 -22.6875 69.79296875 C-23.40511505 69.67433472 -24.1227301 69.55570068 -24.86209106 69.43347168 C-37.62971801 67.12426918 -47.90094358 61.55439674 -55.7421875 51.203125 C-59.90115304 43.26328171 -59.69895786 32.94573741 -57.5546875 24.3984375 C-54.60325886 16.42390436 -47.87776812 10.80174641 -40.46484375 7.05078125 C-27.54349882 1.50109501 -13.90531769 0.05566929 0 0 Z " fill="#1F305C" transform="translate(2086.7421875,2472.796875)"/>
<path d="M0 0 C17.985 -0.0825 35.97 -0.165 54.5 -0.25 C60.14931641 -0.28641602 65.79863281 -0.32283203 71.61914062 -0.36035156 C78.59277344 -0.37841797 78.59277344 -0.37841797 81.87194824 -0.3817749 C84.13044399 -0.38786079 86.38892789 -0.40181 88.64733887 -0.42230225 C126.77286908 -0.75052654 126.77286908 -0.75052654 140.875 12.3125 C148.52032996 20.64141241 150.48475715 30.8481399 150.24609375 41.8828125 C149.43818578 52.11631345 146.57737962 60.98930601 138.80859375 67.96875 C124.90089798 78.50555963 107.33274401 79.25735133 90.5078125 79.4140625 C88.53988235 79.44311172 88.53988235 79.44311172 86.53219604 79.4727478 C83.09652355 79.52336344 79.66081257 79.56335913 76.22497559 79.60089111 C72.69807006 79.64138195 69.17131237 79.69216701 65.64453125 79.7421875 C58.76308188 79.83905248 51.88172986 79.91913861 45 80 C44.67 91.22 44.34 102.44 44 114 C29.48 114 14.96 114 0 114 C0 76.38 0 38.76 0 0 Z " fill="#1B2D5A" transform="translate(2331,2475)"/>
<path d="M0 0 C41.91 0 83.82 0 127 0 C127 9.57 127 19.14 127 29 C99.94 29.33 72.88 29.66 45 30 C44.67 33.96 44.34 37.92 44 42 C70.73 42 97.46 42 125 42 C125 51.24 125 60.48 125 70 C85.4 70.495 85.4 70.495 45 71 C44.67 75.62 44.34 80.24 44 85 C71.72 85 99.44 85 128 85 C128 94.57 128 104.14 128 114 C85.76 114 43.52 114 0 114 C0 76.38 0 38.76 0 0 Z " fill="#1D2E5A" transform="translate(2191,2475)"/>
<path d="M0 0 C19.8 0 39.6 0 60 0 C73.70307259 25.12229975 73.70307259 25.12229975 79.5982666 36.67553711 C81.40060835 40.20736409 83.21273683 43.73417212 85.0234375 47.26171875 C85.37365967 47.94458954 85.72388184 48.62746033 86.0847168 49.33102417 C89.14458755 55.29322939 92.25428982 61.22813773 95.38842773 67.15161133 C99.42413233 74.78396472 103.39424864 82.45018167 107.36694336 90.11547852 C110.80457784 96.73719806 114.30099092 103.31873184 117.92578125 109.83984375 C119 112 119 112 119 114 C102.83 114 86.66 114 70 114 C66.04 105.585 66.04 105.585 62 97 C53.87214159 96.81909488 45.74585315 96.67240759 37.61652088 96.58550262 C33.84148563 96.54378715 30.06790125 96.48723687 26.29370117 96.39648438 C22.6496074 96.30941101 19.00690652 96.26169845 15.36185265 96.24098206 C13.97300975 96.22622484 12.58424136 96.1974033 11.19599342 96.15415955 C3.71387561 95.65738341 3.71387561 95.65738341 -2.85171509 98.51782227 C-4.43845644 100.80401576 -4.43845644 100.80401576 -6 105 C-7.32 107.97 -8.64 110.94 -10 114 C-25.18 114 -40.36 114 -56 114 C-45.59012506 90.86694458 -45.59012506 90.86694458 -39.88313293 79.53967285 C-39.47249918 78.7233992 -39.06186543 77.90712555 -38.63878822 77.06611633 C-38.21787092 76.22961044 -37.79695362 75.39310455 -37.36328125 74.53125 C-36.47093205 72.7503004 -35.57894697 70.96916831 -34.68730164 69.18786621 C-32.37034313 64.56147458 -30.04859498 59.9375041 -27.72570801 55.31408691 C-25.36823946 50.61971683 -23.01536188 45.92304706 -20.66210938 41.2265625 C-16.86065569 33.64105289 -13.05671588 26.05679751 -9.24845886 18.47470093 C-6.15808563 12.32020841 -3.07989442 6.15978884 0 0 Z " fill="#1C2E5A" transform="translate(3376,2475)"/>
<path d="M0 0 C19.8 0 39.6 0 60 0 C73.70307259 25.12229975 73.70307259 25.12229975 79.5982666 36.67553711 C81.40060835 40.20736409 83.21273683 43.73417212 85.0234375 47.26171875 C85.37365967 47.94458954 85.72388184 48.62746033 86.0847168 49.33102417 C89.14458755 55.29322939 92.25428982 61.22813773 95.38842773 67.15161133 C99.42413233 74.78396472 103.39424864 82.45018167 107.36694336 90.11547852 C110.80457784 96.73719806 114.30099092 103.31873184 117.92578125 109.83984375 C119 112 119 112 119 114 C102.83 114 86.66 114 70 114 C66.04 105.585 66.04 105.585 62 97 C53.87214159 96.81909488 45.74585315 96.67240759 37.61652088 96.58550262 C33.84148563 96.54378715 30.06790125 96.48723687 26.29370117 96.39648438 C22.6496074 96.30941101 19.00690652 96.26169845 15.36185265 96.24098206 C13.97300975 96.22622484 12.58424136 96.1974033 11.19599342 96.15415955 C3.71387561 95.65738341 3.71387561 95.65738341 -2.85171509 98.51782227 C-4.43845644 100.80401576 -4.43845644 100.80401576 -6 105 C-7.32 107.97 -8.64 110.94 -10 114 C-25.18 114 -40.36 114 -56 114 C-45.59012506 90.86694458 -45.59012506 90.86694458 -39.88313293 79.53967285 C-39.47249918 78.7233992 -39.06186543 77.90712555 -38.63878822 77.06611633 C-38.21787092 76.22961044 -37.79695362 75.39310455 -37.36328125 74.53125 C-36.47093205 72.7503004 -35.57894697 70.96916831 -34.68730164 69.18786621 C-32.37034313 64.56147458 -30.04859498 59.9375041 -27.72570801 55.31408691 C-25.36823946 50.61971683 -23.01536188 45.92304706 -20.66210938 41.2265625 C-16.86065569 33.64105289 -13.05671588 26.05679751 -9.24845886 18.47470093 C-6.15808563 12.32020841 -3.07989442 6.15978884 0 0 Z " fill="#1C2E5A" transform="translate(2517,2475)"/>
<path d="M0 0 C19.8 0 39.6 0 60 0 C73.70307259 25.12229975 73.70307259 25.12229975 79.5982666 36.67553711 C81.40060835 40.20736409 83.21273683 43.73417212 85.0234375 47.26171875 C85.37365967 47.94458954 85.72388184 48.62746033 86.0847168 49.33102417 C89.14458755 55.29322939 92.25428982 61.22813773 95.38842773 67.15161133 C99.42413233 74.78396472 103.39424864 82.45018167 107.36694336 90.11547852 C110.80457784 96.73719806 114.30099092 103.31873184 117.92578125 109.83984375 C119 112 119 112 119 114 C102.83 114 86.66 114 70 114 C66.04 105.585 66.04 105.585 62 97 C53.87214159 96.81909488 45.74585315 96.67240759 37.61652088 96.58550262 C33.84148563 96.54378715 30.06790125 96.48723687 26.29370117 96.39648438 C22.6496074 96.30941101 19.00690652 96.26169845 15.36185265 96.24098206 C13.97300975 96.22622484 12.58424136 96.1974033 11.19599342 96.15415955 C3.71387561 95.65738341 3.71387561 95.65738341 -2.85171509 98.51782227 C-4.43845644 100.80401576 -4.43845644 100.80401576 -6 105 C-7.32 107.97 -8.64 110.94 -10 114 C-25.18 114 -40.36 114 -56 114 C-45.59012506 90.86694458 -45.59012506 90.86694458 -39.88313293 79.53967285 C-39.47249918 78.7233992 -39.06186543 77.90712555 -38.63878822 77.06611633 C-38.21787092 76.22961044 -37.79695362 75.39310455 -37.36328125 74.53125 C-36.47093205 72.7503004 -35.57894697 70.96916831 -34.68730164 69.18786621 C-32.37034313 64.56147458 -30.04859498 59.9375041 -27.72570801 55.31408691 C-25.36823946 50.61971683 -23.01536188 45.92304706 -20.66210938 41.2265625 C-16.86065569 33.64105289 -13.05671588 26.05679751 -9.24845886 18.47470093 C-6.15808563 12.32020841 -3.07989442 6.15978884 0 0 Z " fill="#1C2E5A" transform="translate(1043,2475)"/>
<path d="M0 0 C14.52 0 29.04 0 44 0 C44.04898438 3.86589844 44.09796875 7.73179687 44.1484375 11.71484375 C44.202518 15.47798378 44.25979777 19.24106255 44.31738281 23.00415039 C44.35555755 25.61022334 44.39043006 28.21634692 44.421875 30.82250977 C44.46777562 34.57847123 44.52572918 38.33408764 44.5859375 42.08984375 C44.59748871 43.24645004 44.60903992 44.40305634 44.62094116 45.5947113 C44.81465023 56.32308148 45.96488525 64.59506723 53 73 C62.15368318 80.90545366 74.27770163 80.86311604 85.75439453 80.21582031 C93.52148171 79.46934227 100.77493998 76.86226246 106 71 C110.11543585 64.18591769 112.07943872 58.25837819 112.20532227 50.29174805 C112.22526749 49.17096359 112.24521271 48.05017914 112.26576233 46.89543152 C112.28247482 45.6963063 112.29918732 44.49718109 112.31640625 43.26171875 C112.3475779 41.40786308 112.3475779 41.40786308 112.37937927 39.51655579 C112.43359931 36.24347874 112.48387578 32.9703726 112.53222656 29.69720459 C112.5826157 26.3521174 112.63828816 23.00712276 112.69335938 19.66210938 C112.80113487 13.10813942 112.90034178 6.55411853 113 0 C127.52 0 142.04 0 157 0 C157.12032643 16.03015413 157.12032643 16.03015413 157.14648438 22.92382812 C157.16433816 27.60663193 157.18533626 32.28925785 157.22631836 36.97192383 C157.25919044 40.75208152 157.27691091 44.53204815 157.28463173 48.31233788 C157.29012576 49.74626862 157.30085254 51.18019027 157.31719017 52.61403847 C157.50296125 69.6118039 153.18635718 85.57172193 141.08984375 98.109375 C127.3539407 110.53587421 107.76621437 116.06181544 89.55078125 116.23828125 C88.73868698 116.246353 87.92659271 116.25442474 87.08988953 116.26274109 C85.3694366 116.27653153 83.6489569 116.28727608 81.9284668 116.29516602 C80.20767924 116.30656834 78.48692364 116.32682825 76.76635742 116.35668945 C54.05590923 116.7495734 32.01271356 113.1096932 14.921875 97.046875 C2.30644328 84.04623926 -0.32446659 68.86490239 -0.1953125 51.46484375 C-0.19157537 49.97555228 -0.18873171 48.48625832 -0.18673706 46.9969635 C-0.17915567 43.10569287 -0.15955544 39.21457511 -0.1373291 35.32336426 C-0.11312373 30.63926603 -0.10406348 25.95511627 -0.09242249 21.27097321 C-0.07312699 14.18054297 -0.03476656 7.09044718 0 0 Z " fill="#1C2E5A" transform="translate(2765,2475)"/>
<path d="M0 0 C14.52 0 29.04 0 44 0 C44.04898437 3.86589844 44.09796875 7.73179687 44.1484375 11.71484375 C44.202518 15.47798378 44.25979777 19.24106255 44.31738281 23.00415039 C44.35555755 25.61022334 44.39043006 28.21634692 44.421875 30.82250977 C44.46777562 34.57847123 44.52572918 38.33408764 44.5859375 42.08984375 C44.59748871 43.24645004 44.60903992 44.40305634 44.62094116 45.5947113 C44.81465023 56.32308148 45.96488525 64.59506723 53 73 C62.15368318 80.90545366 74.27770163 80.86311604 85.75439453 80.21582031 C93.52148171 79.46934227 100.77493998 76.86226246 106 71 C110.11543585 64.18591769 112.07943872 58.25837819 112.20532227 50.29174805 C112.22526749 49.17096359 112.24521271 48.05017914 112.26576233 46.89543152 C112.28247482 45.6963063 112.29918732 44.49718109 112.31640625 43.26171875 C112.3475779 41.40786308 112.3475779 41.40786308 112.37937927 39.51655579 C112.43359931 36.24347874 112.48387578 32.9703726 112.53222656 29.69720459 C112.5826157 26.3521174 112.63828816 23.00712276 112.69335938 19.66210938 C112.80113487 13.10813942 112.90034178 6.55411853 113 0 C127.52 0 142.04 0 157 0 C157.12032643 16.03015413 157.12032643 16.03015413 157.14648438 22.92382812 C157.16433816 27.60663193 157.18533626 32.28925785 157.22631836 36.97192383 C157.25919044 40.75208152 157.27691091 44.53204815 157.28463173 48.31233788 C157.29012576 49.74626862 157.30085254 51.18019027 157.31719017 52.61403847 C157.50296125 69.6118039 153.18635718 85.57172193 141.08984375 98.109375 C127.3539407 110.53587421 107.76621437 116.06181544 89.55078125 116.23828125 C88.73868698 116.246353 87.92659271 116.25442474 87.08988953 116.26274109 C85.3694366 116.27653153 83.6489569 116.28727608 81.9284668 116.29516602 C80.20767924 116.30656834 78.48692364 116.32682825 76.76635742 116.35668945 C54.05590923 116.7495734 32.01271356 113.1096932 14.921875 97.046875 C2.30644328 84.04623926 -0.32446659 68.86490239 -0.1953125 51.46484375 C-0.19157537 49.97555228 -0.18873171 48.48625832 -0.18673706 46.9969635 C-0.17915567 43.10569287 -0.15955544 39.21457511 -0.1373291 35.32336426 C-0.11312373 30.63926603 -0.10406348 25.95511627 -0.09242249 21.27097321 C-0.07312699 14.18054297 -0.03476656 7.09044718 0 0 Z " fill="#1C2E5A" transform="translate(1153,2475)"/>
<path d="M0 0 C0.66 0 1.32 0 2 0 C2.69053467 1.41865356 2.69053467 1.41865356 3.39501953 2.8659668 C12.89287428 22.37696101 22.40391062 41.88143996 31.9375 61.375 C35.62528615 68.91652675 39.31273012 76.45822081 43 84 C43.456026 84.932677 43.912052 85.865354 44.38189697 86.82629395 C62.70610655 124.30560318 62.70610655 124.30560318 69.25 137.9375 C69.85086426 139.17983398 69.85086426 139.17983398 70.46386719 140.44726562 C73 145.76443173 73 145.76443173 73 148 C26.14 148 -20.72 148 -69 148 C-68.08485978 143.42429889 -66.90229304 140.41038062 -64.859375 136.27734375 C-64.38224564 135.30436089 -64.38224564 135.30436089 -63.89547729 134.3117218 C-63.21000644 132.91476148 -62.52204542 131.51902084 -61.83184814 130.12438965 C-59.98186754 126.38476735 -58.15137294 122.63563233 -56.3203125 118.88671875 C-55.94961639 118.12859894 -55.57892029 117.37047913 -55.19699097 116.58938599 C-51.91066245 109.85253492 -48.7512853 103.06270511 -45.625 96.25 C-40.56886322 85.25649124 -35.3161876 74.36946264 -30 63.5 C-22.94065431 49.06489853 -16.07892261 34.55606121 -9.36474609 19.95703125 C-7.3280692 15.54410986 -5.26117721 11.14563141 -3.1875 6.75 C-2.68935791 5.69377441 -2.68935791 5.69377441 -2.18115234 4.61621094 C-1.45475744 3.07716423 -0.72750193 1.53852373 0 0 Z " fill="#FCFCFD" transform="translate(1752,2046)"/>
<path d="M0 0 C47.19 0 94.38 0 143 0 C143 10.56 143 21.12 143 32 C127.16 32.33 111.32 32.66 95 33 C94.67 59.73 94.34 86.46 94 114 C79.15 114 64.3 114 49 114 C49 86.94 49 59.88 49 32 C32.83 32 16.66 32 0 32 C0 21.44 0 10.88 0 0 Z " fill="#1F305C" transform="translate(3199,2475)"/>
<path d="M0 0 C47.19 0 94.38 0 143 0 C143 10.56 143 21.12 143 32 C127.16 32.33 111.32 32.66 95 33 C94.67 59.73 94.34 86.46 94 114 C79.15 114 64.3 114 49 114 C49 86.94 49 59.88 49 32 C32.83 32 16.66 32 0 32 C0 21.44 0 10.88 0 0 Z " fill="#1F305C" transform="translate(2612,2475)"/>
<path d="M0 0 C7.52489584 -0.25451777 15.04867476 -0.42906483 22.5769043 -0.54931641 C25.13494336 -0.59946452 27.69269778 -0.66760358 30.24975586 -0.75439453 C33.93674981 -0.87636164 37.61994384 -0.93254987 41.30859375 -0.9765625 C42.44332626 -1.02817535 43.57805878 -1.07978821 44.74717712 -1.13296509 C49.69825275 -1.13642627 52.77296412 -0.99456638 56.70332336 2.19116211 C58.97933615 4.70140645 61.01697182 7.25508093 63 10 C63.80050781 10.95390625 64.60101562 11.9078125 65.42578125 12.890625 C66.04839844 13.66921875 66.67101563 14.4478125 67.3125 15.25 C69.8924569 18.44640678 72.50558062 21.60237386 75.19921875 24.703125 C75.74602295 25.3331543 76.29282715 25.96318359 76.85620117 26.61230469 C77.93456853 27.85067339 79.01664723 29.08582208 80.1027832 30.31738281 C82.31819905 32.8640046 83.9212928 34.76387839 85 38 C93.00575726 30.0806358 100.54258436 21.78506707 107.5390625 12.9609375 C108.35117188 11.98382812 109.16328125 11.00671875 110 10 C110.69065552 8.74292236 110.69065552 8.74292236 111.39526367 7.46044922 C114.17217638 3.23427322 116.48527967 0.52849338 121.4810791 -0.52142334 C128.99758425 -1.27029368 136.5285881 -0.90768838 144.0625 -0.625 C146.38206586 -0.57479645 148.70173574 -0.52917661 151.02148438 -0.48828125 C156.68327193 -0.37851815 162.34115143 -0.21158968 168 0 C165.89483491 3.59958622 163.72322001 6.57260652 160.875 9.625 C157.62912126 13.16500368 154.51709748 16.76303365 151.5 20.5 C148.5918662 24.0947765 145.61458668 27.58260628 142.5 31 C138.67951323 35.1959484 135.08730959 39.53401389 131.51953125 43.9453125 C128.05088007 48.15071595 124.46862318 52.25362988 120.86816406 56.34643555 C119.80596484 57.56044878 118.76040378 58.78917589 117.72998047 60.03027344 C116 62 116 62 113.85205078 63.93066406 C106.90673572 70.84658261 106.97451969 77.97658109 106.9375 87.25634766 C106.958125 89.35800293 106.97875 91.4596582 107 93.625 C107 100.34875 107 107.0725 107 114 C92.48 114 77.96 114 63 114 C63.3125 93.375 63.3125 93.375 63.51293945 86.95849609 C63.58305326 78.30226451 63.38032684 71.46871691 57.47709656 64.73330688 C55.26168572 62.50528979 52.9593115 60.42370601 50.56063843 58.39544678 C48.24629999 56.32607821 46.39255232 53.95173154 44.5 51.5 C41.01437264 47.1429658 37.32206333 43.05878467 33.5 39 C28.87755676 34.09093476 24.53281263 29.05857373 20.3203125 23.7890625 C17.14393065 19.97098735 13.76439635 16.35732843 10.33569336 12.76538086 C7.6327209 9.90122827 5.16789697 6.96169025 2.8190918 3.79760742 C2.28833542 3.08432785 1.75757904 2.37104828 1.21073914 1.63615417 C0.81119522 1.0962233 0.41165131 0.55629242 0 0 Z " fill="#1D2F5B" transform="translate(1814,2475)"/>
<path d="M0 0 C14.52 0 29.04 0 44 0 C44 26.73 44 53.46 44 81 C70.07 81 96.14 81 123 81 C123 91.89 123 102.78 123 114 C82.41 114 41.82 114 0 114 C0 76.38 0 38.76 0 0 Z " fill="#1A2C59" transform="translate(861,2475)"/>
<path d="M0 0 C7.074375 -0.103125 14.14875 -0.20625 21.4375 -0.3125 C23.63204834 -0.35802002 25.82659668 -0.40354004 28.08764648 -0.45043945 C41.82604193 -0.61633689 56.20594475 -0.13555422 67.375 8.875 C72.35831116 14.06072805 74.12689532 18.65945695 74.4375 25.8125 C74.21192071 33.32241068 72.48439143 40.04145055 66.9375 45.375 C53.61048323 55.43419816 35.56600957 54.26558413 19.8125 54.125 C13.274375 54.08375 6.73625 54.0425 0 54 C0 36.18 0 18.36 0 0 Z " fill="#FDFDFD" transform="translate(1540,2505)"/>
<path d="M0 0 C7.29571311 -0.07424403 14.5912055 -0.12864747 21.88720703 -0.16479492 C24.3683658 -0.17986662 26.84949799 -0.20032746 29.33056641 -0.22631836 C32.90013189 -0.26277167 36.46934461 -0.27974292 40.0390625 -0.29296875 C41.14553131 -0.30845261 42.25200012 -0.32393646 43.39199829 -0.33988953 C49.00759352 -0.3411123 53.1869712 -0.25267432 58 3 C60.46057182 5.46057182 60.37747115 6.40721905 60.5 9.8125 C60.42704769 14.40186381 60.42704769 14.40186381 58.76171875 16.734375 C54.66974222 20.18666289 51.17588598 21.12636021 45.9777832 21.11352539 C44.95695145 21.11344986 43.93611969 21.11337433 42.88435364 21.11329651 C41.78427475 21.10813522 40.68419586 21.10297394 39.55078125 21.09765625 C38.4230278 21.0962413 37.29527435 21.09482635 36.13334656 21.09336853 C32.52637088 21.0877647 28.91945696 21.07521153 25.3125 21.0625 C22.86914152 21.05748549 20.42578207 21.0529225 17.98242188 21.04882812 C11.98825741 21.03779403 5.99413918 21.02052679 0 21 C0 14.07 0 7.14 0 0 Z " fill="#FBFCFC" transform="translate(2375,2504)"/>
<path d="M0 0 C7.56223413 -0.07429269 15.12425461 -0.12867057 22.68676758 -0.16479492 C25.2580943 -0.17985844 27.82939543 -0.2003132 30.40063477 -0.22631836 C34.10178962 -0.26280761 37.802604 -0.27975121 41.50390625 -0.29296875 C43.22148888 -0.31619453 43.22148888 -0.31619453 44.97377014 -0.33988953 C51.07508969 -0.34116893 55.68152503 -0.12150514 61 3 C63.4915904 6.7373856 63.45793285 8.57331583 63 13 C60.21383661 17.57726842 60.21383661 17.57726842 57.20330811 18.62571716 C54.59819096 19.06825656 52.14057825 19.11958848 49.49707031 19.11352539 C48.39623108 19.11344986 47.29539185 19.11337433 46.16119385 19.11329651 C44.97878113 19.10813522 43.79636841 19.10297394 42.578125 19.09765625 C41.36300232 19.0962413 40.14787964 19.09482635 38.89593506 19.09336853 C35.01393169 19.08776988 31.13198594 19.0752176 27.25 19.0625 C24.61849042 19.05748483 21.98697993 19.05292195 19.35546875 19.04882812 C12.90362362 19.03780088 6.45182158 19.02053714 0 19 C0 12.73 0 6.46 0 0 Z " fill="#FDFDFE" transform="translate(1713,2503)"/>
<path d="M0 0 C4.14913581 2.00928854 7.89337323 4.52754398 11.72583008 7.08056641 C12.56220505 7.63263763 13.39858002 8.18470886 14.26029968 8.75350952 C16.92219946 10.51195789 19.57990552 12.27663073 22.23754883 14.04150391 C24.04521822 15.23722971 25.85315792 16.43254696 27.66137695 17.62744141 C32.08574463 20.55240134 36.50668869 23.48247812 40.92504883 26.41650391 C35.31806734 29.44289441 29.55666505 28.74504651 23.30004883 28.72900391 C22.06641602 28.74511719 20.8327832 28.76123047 19.56176758 28.77783203 C11.00079638 28.7823809 2.42672708 28.44286204 -4.57495117 22.97900391 C-8.1255679 19.33962176 -9.37782254 16.62571466 -9.51245117 11.54150391 C-9.4525839 7.85694567 -9.05267134 5.72029721 -6.69995117 2.85400391 C-2.78346194 -0.78273609 -2.78346194 -0.78273609 0 0 Z " fill="#FBFBFC" transform="translate(3030.074951171875,2538.58349609375)"/>
<path d="M0 0 C2.71645352 3.34396569 4.6319233 6.97327383 6.5390625 10.8125 C6.86538666 11.46323486 7.19171082 12.11396973 7.52792358 12.78442383 C8.21394199 14.15510458 8.89795672 15.5267898 9.58007812 16.89941406 C10.6229486 18.99587612 11.67429664 21.08792838 12.7265625 23.1796875 C13.39374241 24.51536875 14.06042604 25.85129805 14.7265625 27.1875 C15.04009674 27.81052002 15.35363098 28.43354004 15.67666626 29.07543945 C17.16574773 32.08591202 18.17840414 34.71361658 19 38 C6.79 38 -5.42 38 -18 38 C-12.36850005 24.48440013 -12.36850005 24.48440013 -9.921875 19.39453125 C-9.40109375 18.30978516 -8.8803125 17.22503906 -8.34375 16.10742188 C-7.8178125 15.02009766 -7.291875 13.93277344 -6.75 12.8125 C-6.20859375 11.68263672 -5.6671875 10.55277344 -5.109375 9.38867188 C-1.13325711 1.13325711 -1.13325711 1.13325711 0 0 Z " fill="#FAFBFB" transform="translate(3405,2504)"/>
<path d="M0 0 C2.71645352 3.34396569 4.6319233 6.97327383 6.5390625 10.8125 C6.86538666 11.46323486 7.19171082 12.11396973 7.52792358 12.78442383 C8.21394199 14.15510458 8.89795672 15.5267898 9.58007812 16.89941406 C10.6229486 18.99587612 11.67429664 21.08792838 12.7265625 23.1796875 C13.39374241 24.51536875 14.06042604 25.85129805 14.7265625 27.1875 C15.04009674 27.81052002 15.35363098 28.43354004 15.67666626 29.07543945 C17.16574773 32.08591202 18.17840414 34.71361658 19 38 C6.79 38 -5.42 38 -18 38 C-12.36850005 24.48440013 -12.36850005 24.48440013 -9.921875 19.39453125 C-9.40109375 18.30978516 -8.8803125 17.22503906 -8.34375 16.10742188 C-7.8178125 15.02009766 -7.291875 13.93277344 -6.75 12.8125 C-6.20859375 11.68263672 -5.6671875 10.55277344 -5.109375 9.38867188 C-1.13325711 1.13325711 -1.13325711 1.13325711 0 0 Z " fill="#FAFBFB" transform="translate(2546,2504)"/>
<path d="M0 0 C2.71645352 3.34396569 4.6319233 6.97327383 6.5390625 10.8125 C6.86538666 11.46323486 7.19171082 12.11396973 7.52792358 12.78442383 C8.21394199 14.15510458 8.89795672 15.5267898 9.58007812 16.89941406 C10.6229486 18.99587612 11.67429664 21.08792838 12.7265625 23.1796875 C13.39374241 24.51536875 14.06042604 25.85129805 14.7265625 27.1875 C15.04009674 27.81052002 15.35363098 28.43354004 15.67666626 29.07543945 C17.16574773 32.08591202 18.17840414 34.71361658 19 38 C6.79 38 -5.42 38 -18 38 C-12.36850005 24.48440013 -12.36850005 24.48440013 -9.921875 19.39453125 C-9.40109375 18.30978516 -8.8803125 17.22503906 -8.34375 16.10742188 C-7.8178125 15.02009766 -7.291875 13.93277344 -6.75 12.8125 C-6.20859375 11.68263672 -5.6671875 10.55277344 -5.109375 9.38867188 C-1.13325711 1.13325711 -1.13325711 1.13325711 0 0 Z " fill="#FAFBFB" transform="translate(1072,2504)"/>
<path d="M0 0 C3 2.125 3 2.125 4 4.125 C4.35693556 7.90851691 4.40494249 10.35192797 2.625 13.75 C-1.98038055 17.91677288 -8.66401915 21.88390484 -15 22.125 C-18.0078125 20.39453125 -18.0078125 20.39453125 -21.125 17.9375 C-22.15882813 17.13957031 -23.19265625 16.34164062 -24.2578125 15.51953125 C-27.67291825 12.53739474 -29.74773132 10.63861208 -30.5 6.125 C-30 3.125 -30 3.125 -27.6875 0.8125 C-20.62769478 -3.62040095 -7.56538774 -3.72045576 0 0 Z " fill="#FAFAFB" transform="translate(3068,2494.875)"/>
<path d="M0 0 C0.66 0.33 1.32 0.66 2 1 C-0.97 3.97 -3.94 6.94 -7 10 C-7.33 9.34 -7.66 8.68 -8 8 C-7.04578192 6.85073734 -6.08647955 5.70569459 -5.125 4.5625 C-4.59132813 3.92441406 -4.05765625 3.28632813 -3.5078125 2.62890625 C-2 1 -2 1 0 0 Z " fill="#626F8D" transform="translate(3009,2480)"/>
</svg>
